HIERARCHY
ROOT Hips
{
    OFFSET 0.0 0.0 0.0
    CHANNELS 6 Xposition Yposition Zposition Zrotation Xrotation Yrotation
    JOINT Spine
    {
        OFFSET 0.0 5.0 0.0
        CHANNELS 3 Zrotation Xrotation Yrotation
        JOINT Chest
        {
            OFFSET 0.0 5.0 0.0
            CHANNELS 3 Zrotation Xrotation Yrotation
            JOINT Neck
            {
                OFFSET 0.0 8.0 0.0
                CHANNELS 3 Zrotation Xrotation Yrotation
                JOINT Head
                {
                    OFFSET 0.0 5.0 0.0
                    CHANNELS 3 Zrotation Xrotation Yrotation
                    End Site
                    {
                        OFFSET 0.0 3.0 0.0
                    }
                }
            }
            JOINT LeftShoulder
            {
                OFFSET -5.0 0.0 0.0
                CHANNELS 3 Zrotation Xrotation Yrotation
                JOINT LeftArm
                {
                    OFFSET 0.0 -10.0 0.0
                    CHANNELS 3 Zrotation Xrotation Yrotation
                    JOINT LeftForeArm
                    {
                        OFFSET 0.0 -10.0 0.0
                        CHANNELS 3 Zrotation Xrotation Yrotation
                        End Site
                        {
                            OFFSET 0.0 -3.0 0.0
                        }
                    }
                }
            }
        }
    }
}

MOTION
Frames: 44
Frame Time: 0.033333
960.000000 445.000000 87.497614 0.000000 0.000000 0.000000 0.000000 0.000000 0.000000 23.025492 -9.841215 0.000000 180.000000 5.156621 0.000000 21.801409 -5.906855 -0.000000 158.198591 -6.117808 30.000000 15.945396 2.760962 0.000000 18.000000 0.302147 0.000000
1691.525230 140.756605 107.689260 0.000000 0.000000 0.000000 0.000000 0.000000 0.000000 -163.376529 -0.921552 4.973798 16.623471 7.396855 4.973798 -171.853121 -3.651890 3.759997 99.744051 -24.582767 29.763441 -171.126653 -2.801766 -3.759997 0.673538 0.396007 0.313953
1636.048050 128.802021 125.845870 0.000000 0.000000 0.000000 0.000000 0.000000 0.000000 157.904128 3.013581 9.635073 -22.095872 -12.321734 9.635073 -171.936471 -3.494729 7.460697 -143.675701 0.807697 29.057495 -173.500805 -4.123881 -7.460697 0.570999 0.458858 0.626666
1578.156967 80.474526 111.689100 0.000000 0.000000 0.000000 0.000000 0.000000 0.000000 -139.519796 -12.264807 13.690942 40.480204 0.604471 13.690942 -174.507724 -3.874248 11.043737 119.111399 -9.269518 27.893295 -173.607258 -3.609104 -11.043737 0.461920 0.411367 0.936907
960.418757 444.998421 115.966584 0.000000 0.000000 0.000000 0.000000 0.000000 0.000000 25.077893 -17.636514 16.886559 180.000000 1.334170 16.886559 23.861935 4.460597 14.452610 156.138065 -5.772019 26.289200 17.903699 9.600332 -14.452610 18.000000 0.600581 1.243449
960.523360 444.997533 110.541859 0.000000 0.000000 0.000000 0.000000 0.000000 0.000000 25.638906 27.225127 19.021130 180.000000 -16.534758 19.021130 24.425035 -4.012541 17.633558 155.574965 1.827687 24.270510 18.452907 -7.125177 -17.633558 18.000000 -0.049393 1.545085
960.627905 444.996447 137.454310 0.000000 0.000000 0.000000 0.000000 0.000000 0.000000 26.219073 -8.375304 19.960535 180.000000 0.005445 19.960535 25.006291 2.183011 20.536413 154.993709 -0.242872 21.869059 19.024920 -4.204158 -20.536413 18.000000 0.426454 1.840623
1126.242828 420.359820 136.802322 0.000000 0.000000 0.000000 0.000000 0.000000 0.000000 31.410514 5.193754 19.645745 -148.589486 -8.814100 19.645745 32.280463 0.231597 23.115397 -131.603972 -1.049037 19.122720 45.585331 -0.996854 -23.115397 -13.449727 0.117095 2.128896
1257.895088 650.549197 129.936117 0.000000 0.000000 0.000000 0.000000 0.000000 0.000000 25.073180 35.313422 18.096541 -154.926820 -17.784973 18.096541 46.260945 5.979304 25.329838 -154.651428 -5.833367 16.074804 27.339487 4.910041 -25.329838 -13.619892 1.526602 2.408768
960.941083 444.992008 157.663229 0.000000 0.000000 0.000000 0.000000 0.000000 0.000000 28.072001 12.819943 15.410265 180.000000 -3.951134 15.410265 26.849221 8.981273 27.144812 153.150779 -4.176959 12.773379 20.864045 6.124482 -27.144812 18.000000 -0.479545 2.679134
1163.815842 547.748709 143.021022 0.000000 0.000000 0.000000 0.000000 0.000000 0.000000 117.162728 3.939690 11.755705 -62.837272 -6.365507 11.755705 102.363764 3.326232 28.531695 -47.376450 -0.132458 9.270510 104.768601 2.053493 -28.531695 -6.003489 0.383398 2.938926
961.149372 444.988063 149.343330 0.000000 0.000000 0.000000 0.000000 0.000000 0.000000 29.395983 -19.554694 7.362491 180.000000 6.067486 7.362491 28.146217 -12.020596 29.468618 151.853783 8.245351 5.621439 22.170006 2.502847 -29.468618 18.000000 -1.018262 3.187120
1136.717377 590.104480 137.531219 0.000000 0.000000 0.000000 0.000000 0.000000 0.000000 115.752126 8.624140 2.506665 -64.247874 -11.090573 2.506665 73.638146 3.880972 29.940802 -21.842452 1.788954 1.883716 75.369282 -2.996866 -29.940802 -6.767207 -0.020160 3.422736
1163.079758 634.077559 130.162337 0.000000 0.000000 0.000000 0.000000 0.000000 0.000000 132.174340 -3.211221 -2.506665 -47.825660 4.179908 -2.506665 94.255711 1.360361 29.940802 -149.364979 -6.743342 -1.883716 30.021641 6.191376 -29.940802 -5.096180 -0.369344 3.644843
961.460830 444.980668 140.187071 0.000000 0.000000 0.000000 0.000000 0.000000 0.000000 31.497152 -14.037742 -7.362491 180.000000 -1.656568 -7.362491 30.152455 -5.918058 29.468618 149.847545 8.392478 -5.621439 24.175589 -21.010432 -29.468618 18.000000 1.607314 3.852566
1097.449951 565.089898 150.782870 0.000000 0.000000 0.000000 0.000000 0.000000 0.000000 -119.219568 -3.255821 -11.755705 60.780432 3.971833 -11.755705 -150.180642 -7.061785 28.531695 48.804955 0.964206 -9.270510 -149.874178 -6.192604 -28.531695 2.713854 0.528681 4.045085
1114.140244 528.302071 124.868570 0.000000 0.000000 0.000000 0.000000 0.000000 0.000000 -142.671523 -9.182339 -15.410265 37.328477 2.318535 -15.410265 -177.395681 3.233484 27.144812 34.687329 -1.045139 -12.773379 161.894167 -1.940907 -27.144812 -0.910956 -0.011649 4.221640
1116.433640 479.728639 149.718214 0.000000 0.000000 0.000000 0.000000 0.000000 0.000000 -102.267481 12.956051 -18.096541 77.732519 -11.990010 -18.096541 -163.695626 6.432113 25.329838 38.575767 1.494029 -16.074804 -176.001122 -2.701709 -25.329838 0.706594 -0.025836 4.381533
1135.931282 466.493965 148.763629 0.000000 0.000000 0.000000 0.000000 0.000000 0.000000 -112.868406 -2.323230 -19.645745 67.131594 -9.102105 -19.645745 -159.517862 5.419596 23.115397 36.204678 -1.641709 -19.122720 -154.426613 -5.662507 -23.115397 2.428729 0.486894 4.524135
1141.618767 467.420679 140.905570 0.000000 0.000000 0.000000 0.000000 0.000000 0.000000 -123.086385 7.044008 -19.960535 56.913615 -0.014776 -19.960535 -154.885724 0.010445 20.536413 36.481623 -3.887117 -21.869059 -153.965441 -5.507296 -20.536413 2.446728 0.505089 4.648882
1150.647926 469.370956 112.621704 0.000000 0.000000 0.000000 0.000000 0.000000 0.000000 -43.953779 -46.518591 -19.021130 136.046221 33.707902 -19.021130 -154.327268 -7.097501 17.633558 60.745168 16.402202 -24.270510 -153.350642 -6.918708 -17.633558 2.386216 0.626926 4.755283
1151.529922 496.420240 145.676362 0.000000 0.000000 0.000000 0.000000 0.000000 0.000000 -116.362129 -3.085459 -16.886559 63.637871 -3.094343 -16.886559 -149.081043 1.822740 14.452610 35.941860 -2.078489 -26.289200 -156.847177 0.536561 -14.452610 2.056513 -0.150201 4.842916
1148.402367 515.713574 129.146118 0.000000 0.000000 0.000000 0.000000 0.000000 0.000000 -118.252650 -9.537738 -13.690942 61.747350 -6.858229 -13.690942 -138.082896 -0.773367 11.043737 -156.312677 -7.242685 -27.893295 21.649626 10.881109 -11.043737 2.962417 -0.263116 4.911436
1175.363617 533.368646 144.388511 0.000000 0.000000 0.000000 0.000000 0.000000 0.000000 -95.476638 15.369116 -9.635073 84.523362 0.969449 -9.635073 -113.907461 0.986130 7.460697 -155.995907 -6.822388 -29.057495 12.512064 8.295568 -7.460697 -16.748794 -0.829557 4.960574
1199.533310 485.991104 131.517134 0.000000 0.000000 0.000000 0.000000 0.000000 0.000000 -100.003195 17.436524 -4.973798 79.996805 -3.007259 -4.973798 -86.083188 -0.851771 3.759997 38.843754 -2.642684 -29.763441 -106.539452 0.778575 -3.759997 6.197806 -0.169115 4.990134
962.588190 444.938442 129.122459 0.000000 0.000000 0.000000 0.000000 0.000000 0.000000 39.579754 -8.600349 -0.000000 180.000000 -7.072897 -0.000000 36.680773 12.885142 0.000000 143.319227 -9.087015 -30.000000 29.388385 13.321741 -0.000000 18.000000 0.535365 5.000000
1142.094727 445.716287 127.902444 0.000000 0.000000 0.000000 0.000000 0.000000 0.000000 -140.228454 2.147110 4.973798 39.771546 -26.093625 4.973798 -156.118008 -5.486450 -3.759997 3.479189 8.099600 -29.763441 -158.005660 -6.396787 3.759997 2.150019 0.526826 4.990134
1164.005928 424.847746 122.403263 0.000000 0.000000 0.000000 0.000000 0.000000 0.000000 -84.241076 18.326924 9.635073 95.758924 -9.008350 9.635073 -156.181584 -5.849330 -7.460697 166.928360 -3.650235 -29.057495 -154.947270 -6.140544 7.460697 2.644196 0.752816 4.960574
1124.208755 418.286655 116.812615 0.000000 0.000000 0.000000 0.000000 0.000000 0.000000 -117.427077 -30.248730 13.690942 62.572923 27.534683 13.690942 -155.943063 -6.273289 -11.043737 14.023837 -10.959862 -27.893295 -157.382674 -4.804253 11.043737 2.188130 0.569942 4.911436
962.990408 444.917226 113.148544 0.000000 0.000000 0.000000 0.000000 0.000000 0.000000 42.110883 13.163467 16.886559 180.000000 -7.259394 16.886559 37.946959 -9.227725 -14.452610 142.053041 -3.439894 -26.289200 29.293612 14.389320 14.452610 18.000000 -0.446442 4.842916
963.090170 444.911436 93.572552 0.000000 0.000000 0.000000 0.000000 0.000000 0.000000 42.659200 18.775048 19.021130 180.000000 -19.223830 19.021130 38.119107 11.269625 -17.633558 141.880893 11.443468 -24.270510 29.068887 -10.857003 17.633558 18.000000 0.221623 4.755283
1186.646461 396.272757 106.132697 0.000000 0.000000 0.000000 0.000000 0.000000 0.000000 -72.847419 0.481433 19.960535 107.152581 3.949579 19.960535 -156.703603 -4.629058 -20.536413 178.447294 -7.713733 -21.869059 -157.212393 -4.239463 20.536413 1.964058 0.540871 4.648882
1313.051605 426.636125 89.140261 0.000000 0.000000 0.000000 0.000000 0.000000 0.000000 90.994869 46.310995 19.645745 -89.005131 -28.394627 19.645745 -160.515303 -4.648981 -23.115397 -153.248861 -13.462312 -19.122720 -159.640525 -4.426731 23.115397 0.000000 0.000000 0.000000
1347.999344 420.772226 87.586100 0.000000 0.000000 0.000000 0.000000 0.000000 0.000000 90.154351 6.850237 18.096541 -89.845649 -2.452065 18.096541 -162.053401 -3.630122 -25.329838 -136.198880 4.953410 -16.074804 -160.991694 -5.321413 25.329838 0.000000 0.000000 0.000000
1344.315948 421.031681 66.392313 0.000000 0.000000 0.000000 0.000000 0.000000 0.000000 69.757587 12.342994 15.410265 -110.242413 0.468011 15.410265 25.616746 -1.860202 -27.144812 -157.821005 -4.298179 -12.773379 17.214985 3.673365 27.144812 -16.704706 0.030331 4.221640
1350.307617 440.309436 87.045590 0.000000 0.000000 0.000000 0.000000 0.000000 0.000000 71.124018 -0.812986 11.755705 -108.875982 0.096708 11.755705 42.739987 -1.011157 -28.531695 -142.315466 5.141252 -9.270510 16.600926 -1.619556 28.531695 -16.660102 -0.041041 4.045085
1357.685051 430.688889 82.444150 0.000000 0.000000 0.000000 0.000000 0.000000 0.000000 77.656077 3.787600 7.362491 -102.343923 5.316435 7.362491 39.407151 -0.244440 -29.468618 -136.343173 4.000179 -5.621439 22.144452 -2.648814 29.468618 -16.305135 0.001972 3.852566
1369.482193 445.909406 80.218722 0.000000 0.000000 0.000000 0.000000 0.000000 0.000000 88.051188 11.895925 2.506665 -91.948812 1.508848 2.506665 -161.283973 -3.481633 -29.940802 -119.799169 -0.150742 -1.883716 -164.575400 -3.732224 29.940802 1.401013 0.406573 3.644843
963.875156 444.858159 61.439345 0.000000 0.000000 0.000000 0.000000 0.000000 0.000000 45.304844 28.538261 -2.506665 180.000000 -8.766613 -2.506665 37.252439 4.922197 -29.940802 142.747561 -13.087382 1.883716 25.146244 -10.225796 29.940802 18.000000 0.919641 3.422736
963.971479 444.850633 49.424717 0.000000 0.000000 0.000000 0.000000 0.000000 0.000000 45.383640 45.026902 -7.362491 180.000000 16.157490 -7.362491 36.882310 -12.388302 -29.468618 143.117690 15.532021 5.621439 24.499789 -12.575477 29.468618 18.000000 0.223693 3.187120
1336.629524 469.010178 64.858853 0.000000 0.000000 0.000000 0.000000 0.000000 0.000000 -72.390177 -22.385179 -11.755705 107.609823 53.188717 -11.755705 -158.649984 -3.653938 -28.531695 2.583425 5.076127 9.270510 -39.658551 -6.466366 28.531695 10.837181 1.328241 2.938926
1311.966934 518.219100 56.987100 0.000000 0.000000 0.000000 0.000000 0.000000 0.000000 -63.565072 37.752856 -15.410265 116.434928 -17.282041 -15.410265 -14.840750 1.998398 -27.144812 -158.549348 -2.576498 12.773379 17.488774 1.578577 27.144812 7.174982 5.037256 2.679134
964.257793 444.826908 44.516428 0.000000 0.000000 0.000000 0.000000 0.000000 0.000000 45.262206 19.622622 -18.096541 180.000000 -12.313982 -18.096541 35.497192 -1.276164 -25.329838 144.502808 -6.848033 16.074804 22.522929 13.010880 25.329838 18.000000 -1.695917 2.408768
1275.921364 516.836239 51.438910 0.000000 0.000000 0.000000 0.000000 0.000000 0.000000 85.186295 -7.164752 -19.645745 -94.813705 0.997472 -19.645745 52.470689 -4.106714 -23.115397 -44.513683 -3.544443 19.122720 50.867598 1.736158 23.115397 -8.717188 -0.011566 2.128896
